# Blender v2.79 (sub 0) OBJ File: ''
# www.blender.org
mtllib rock_0.mtl
o Rock
v -0.779154 -1.208397 0.615287
v -0.577091 -0.305671 2.265241
v -1.000745 -0.732208 1.485740
v 0.430951 -0.909830 1.212170
v 0.122215 -0.634484 1.860925
v -0.895423 -1.102545 0.036754
v 0.315531 -1.455411 -0.148691
v 1.286995 -0.157500 0.715238
v -0.434991 -1.093891 -0.175616
v -0.792259 -1.010677 -1.082397
v 0.140674 -1.337094 -0.908863
v 1.278491 -0.675149 -0.356678
v 0.803950 -0.752665 -0.911575
v 0.059229 -1.372603 -1.601990
v -0.355852 -0.878039 -1.666780
v 0.296057 -1.002035 -2.069334
v 0.332201 1.011415 0.789192
v -0.769691 1.129508 0.758597
v -0.353582 0.639798 1.938918
v -0.563745 1.375547 -0.361320
v 0.775367 0.845070 1.532146
v 0.618100 0.777927 0.245345
v -0.961292 0.918621 -0.593394
v -1.047805 0.771438 1.034525
v -0.117121 1.341614 -0.815901
v 1.097281 0.591880 -0.292416
v -0.467231 0.861899 -1.326861
v -1.313114 0.641553 -1.166751
v -0.161204 0.951213 -1.934142
v 0.625655 0.544050 -1.278999
v -1.405769 -0.301665 0.656553
v 1.109694 -0.350729 1.405611
v -0.876325 0.034508 1.310773
v -0.162936 0.297901 2.373043
v 0.275911 0.348520 2.385423
v 1.307960 0.325183 1.548928
v 1.010309 0.517921 1.961544
v -0.885035 0.354650 1.518303
v 1.195063 -0.512104 -1.197672
v 1.143031 -0.106133 -0.533840
v 0.944882 0.290357 -1.407278
v 0.130214 -0.284376 -2.135942
v 1.502683 0.341239 1.162949
v 1.229608 0.157153 -0.458238
v 1.200547 0.577251 0.963176
v -1.075767 -0.473310 -1.208149
v -0.672835 -0.155754 -1.743955
v -0.281689 -0.216320 -1.807580
v 0.179539 0.130834 -2.029748
v -0.275757 0.204936 -2.299503
v -1.609633 0.107154 -0.546744
v -1.361626 0.314758 0.508932
vt 0.367669 0.439789
vt 0.219543 0.512969
vt 0.279909 0.454930
vt 0.366427 0.589708
vt 0.271676 0.589708
vt 0.395363 0.388156
vt 0.523373 0.472949
vt 0.572473 0.820511
vt 0.512167 0.614947
vt 0.698479 0.746155
vt 0.448160 0.397717
vt 0.461406 0.284300
vt 0.571894 0.365539
vt 0.673690 0.627609
vt 0.654440 0.552515
vt 0.608108 0.263223
vt 0.549923 0.495006
vt 0.527945 0.205697
vt 0.686059 0.429900
vt 0.613862 0.420150
vt 0.666355 0.339506
vt 0.012338 0.312615
vt 0.145153 0.326124
vt 0.115523 0.469733
vt 0.156113 0.207990
vt 0.877291 0.801802
vt 0.794506 0.848383
vt 0.853072 0.728735
vt 0.223987 0.213254
vt 0.179944 0.359427
vt 0.137244 0.127959
vt 0.806450 0.665121
vt 0.971667 0.612950
vt 0.241755 0.111975
vt 0.293344 0.193473
vt 0.937621 0.458222
vt 0.835912 0.550702
vt 0.274955 0.017952
vt 0.281752 0.373092
vt 0.677988 0.816950
vt 0.608411 0.926474
vt 0.219325 0.423011
vt 0.135343 0.539604
vt 0.738793 0.928472
vt 0.743043 0.980637
vt 0.738232 0.821076
vt 0.747235 0.858707
vt 0.182112 0.421418
vt 0.827748 0.980637
vt 0.711363 0.552582
vt 0.734691 0.624256
vt 0.791678 0.547085
vt 0.769750 0.409125
vt 0.738744 0.789152
vt 0.760430 0.640094
vt 0.773514 0.783292
vt 0.407253 0.237711
vt 0.426637 0.146616
vt 0.765296 0.337099
vt 0.476573 0.113589
vt 0.816048 0.438828
vt 0.851141 0.374354
vt 0.416166 0.027627
vt 0.304356 0.267504
vt 0.241572 0.337372
vn -0.4379 -0.8827 0.1704
vn -0.4560 -0.2406 0.8568
vn -0.6348 -0.5882 0.5011
vn 0.3789 -0.8541 0.3562
vn 0.2065 -0.7262 0.6557
vn -0.5512 -0.8288 -0.0964
vn 0.2239 -0.9745 0.0127
vn 0.8787 -0.4762 0.0314
vn -0.2615 -0.9560 -0.1328
vn -0.6352 -0.7287 -0.2561
vn 0.1674 -0.9823 -0.0836
vn 0.8993 -0.4357 -0.0383
vn 0.5379 -0.8199 -0.1960
vn 0.0832 -0.9308 -0.3559
vn -0.5726 -0.4021 -0.7144
vn 0.2377 -0.5137 -0.8244
vn 0.2922 0.9491 0.1170
vn -0.3992 0.8796 0.2587
vn -0.3710 0.7432 0.5567
vn -0.3259 0.9431 -0.0654
vn 0.3212 0.9126 0.2528
vn 0.4870 0.8734 0.0007
vn -0.6690 0.7330 -0.1229
vn -0.6932 0.5640 0.4487
vn 0.1272 0.9619 -0.2419
vn 0.7251 0.6744 -0.1389
vn -0.4423 0.8754 -0.1951
vn -0.7931 0.4718 -0.3850
vn 0.0579 0.7505 -0.6583
vn 0.5673 0.6992 -0.4350
vn -0.9511 -0.1886 0.2446
vn 0.6988 -0.6072 0.3781
vn -0.8663 0.0998 0.4894
vn -0.2767 0.2158 0.9364
vn 0.2200 0.2028 0.9542
vn 0.8598 0.1754 0.4796
vn 0.6231 0.3442 0.7023
vn -0.8123 0.0712 0.5788
vn 0.8841 -0.3129 -0.3472
vn 0.9885 0.0177 -0.1500
vn 0.7215 0.4442 -0.5311
vn 0.1094 -0.1284 -0.9857
vn 0.9466 0.2593 0.1915
vn 0.9758 0.0307 -0.2164
vn 0.5501 0.8348 0.0199
vn -0.8143 -0.3443 -0.4672
vn -0.6028 -0.3018 -0.7386
vn -0.4173 -0.4265 -0.8025
vn 0.5845 0.2608 -0.7683
vn -0.1864 -0.0143 -0.9824
vn -0.9919 -0.0078 -0.1266
vn -0.9159 0.3226 0.2387
usemtl Rock
s 1
f 1/1/1 2/2/2 3/3/3
f 1/1/1 4/4/4 5/5/5
f 3/3/3 6/6/6 1/1/1
f 4/4/4 1/1/1 7/7/7
f 4/8/4 7/9/7 8/10/8
f 1/1/1 6/6/6 9/11/9
f 6/6/6 10/12/10 9/11/9
f 7/7/7 1/1/1 9/11/9
f 7/7/7 9/11/9 11/13/11
f 9/11/9 10/12/10 11/13/11
f 12/14/12 7/9/7 13/15/13
f 12/14/12 8/10/8 7/9/7
f 10/12/10 14/16/14 11/13/11
f 13/15/13 7/9/7 11/17/11
f 14/16/14 10/12/10 15/18/15
f 16/19/16 11/17/11 14/20/14
f 16/19/16 14/20/14 15/21/15
f 11/17/11 16/19/16 13/15/13
f 17/22/17 18/23/18 19/24/19
f 20/25/20 18/23/18 17/22/17
f 17/26/17 21/27/21 22/28/22
f 18/23/18 23/29/23 24/30/24
f 18/23/18 20/25/20 23/29/23
f 25/31/25 20/25/20 17/22/17
f 22/28/22 26/32/26 25/33/25
f 25/33/25 17/26/17 22/28/22
f 27/34/27 28/35/28 23/29/23
f 23/29/23 20/25/20 27/34/27
f 20/25/20 25/31/25 27/34/27
f 29/36/29 25/33/25 26/32/26
f 30/37/30 29/36/29 26/32/26
f 27/34/27 25/31/25 29/38/29
f 2/2/2 31/39/31 3/3/3
f 5/5/5 2/2/2 1/1/1
f 32/40/32 5/41/5 4/8/4
f 31/39/31 2/2/2 33/42/33
f 2/2/2 34/43/34 33/42/33
f 2/2/2 5/5/5 34/43/34
f 35/44/35 34/45/34 5/41/5
f 32/40/32 35/44/35 5/41/5
f 36/46/36 37/47/37 32/40/32
f 33/42/33 34/43/34 38/48/38
f 19/24/19 38/48/38 34/43/34
f 35/44/35 21/27/21 19/49/19
f 34/45/34 35/44/35 19/49/19
f 17/26/17 19/49/19 21/27/21
f 35/44/35 37/47/37 21/27/21
f 32/40/32 37/47/37 35/44/35
f 36/46/36 21/27/21 37/47/37
f 38/48/38 19/24/19 18/23/18
f 8/10/8 32/40/32 4/8/4
f 39/50/39 12/14/12 13/15/13
f 12/14/12 40/51/40 8/10/8
f 12/14/12 39/50/39 40/51/40
f 41/52/41 40/51/40 39/50/39
f 39/50/39 42/53/42 41/52/41
f 32/40/32 8/10/8 43/54/43
f 32/40/32 43/54/43 36/46/36
f 8/10/8 40/51/40 43/54/43
f 44/55/44 43/54/43 40/51/40
f 40/51/40 41/52/41 44/55/44
f 21/27/21 36/46/36 45/56/45
f 36/46/36 43/54/43 45/56/45
f 44/55/44 26/32/26 43/54/43
f 45/56/45 43/54/43 26/32/26
f 41/52/41 26/32/26 44/55/44
f 21/27/21 45/56/45 22/28/22
f 45/56/45 26/32/26 22/28/22
f 26/32/26 41/52/41 30/37/30
f 13/15/13 16/19/16 39/50/39
f 42/53/42 39/50/39 16/19/16
f 15/21/15 42/53/42 16/19/16
f 46/57/46 47/58/47 15/18/15
f 15/21/15 48/59/48 42/53/42
f 47/58/47 48/60/48 15/18/15
f 49/61/49 41/52/41 42/53/42
f 50/62/50 49/61/49 42/53/42
f 42/53/42 48/59/48 50/62/50
f 48/60/48 47/58/47 50/63/50
f 49/61/49 30/37/30 41/52/41
f 29/36/29 49/61/49 50/62/50
f 28/35/28 50/63/50 47/58/47
f 29/36/29 30/37/30 49/61/49
f 50/63/50 28/35/28 29/38/29
f 27/34/27 29/38/29 28/35/28
f 15/18/15 10/12/10 46/57/46
f 6/6/6 46/57/46 10/12/10
f 31/39/31 6/6/6 3/3/3
f 46/57/46 6/6/6 31/39/31
f 47/58/47 46/57/46 51/64/51
f 51/64/51 31/39/31 52/65/52
f 46/57/46 31/39/31 51/64/51
f 31/39/31 33/42/33 52/65/52
f 28/35/28 47/58/47 51/64/51
f 23/29/23 28/35/28 51/64/51
f 52/65/52 23/29/23 51/64/51
f 33/42/33 38/48/38 52/65/52
f 24/30/24 52/65/52 38/48/38
f 23/29/23 52/65/52 24/30/24
f 24/30/24 38/48/38 18/23/18
